# xmcd
#
# Track frame offsets: 
#        150
#        18251
#        33022
#        46741
#        62065
#        80931
#        99280
#        121009
#        143898
#        165042
#        175426
#        189776
#
# Disc length: 2833 seconds
#
# Revision: 0
# Processed by: cddbd v1.5.2PL0 Copyright (c) Steve Scherf et al.
# Submitted via: ExactAudioCopy v0.95b3
#
DISCID=860b0f0c
DTITLE=Mojo Bluesmen - Dirty Love
DYEAR=2009
DGENRE=Blues
TTITLE0=Dirty Love
TTITLE1=Drinkin 'til Tomorrow
TTITLE2=Blood of A Virgin
TTITLE3=Take A Bit of Whisky
TTITLE4=Bury You
TTITLE5=Mean Man
TTITLE6=Put You Down The Whorehouse
TTITLE7=Tear This Town Down
TTITLE8=Screwin Round Blues
TTITLE9=Whisky and Women
TTITLE10=Bleedin from The Arsehole
TTITLE11=My Woman Out Fuckin'
EXTD=
EXTT0=
EXTT1=
EXTT2=
EXTT3=
EXTT4=
EXTT5=
EXTT6=
EXTT7=
EXTT8=
EXTT9=
EXTT10=
EXTT11=
PLAYORDER=
